<?xml version="1.0" encoding="UTF-8" standalone="no"?>
<svg width="200" height="200" viewBox="0 0 200 200" fill="none" xmlns="http://www.w3.org/2000/svg">
  <circle cx="100" cy="100" r="90" fill="#07C983" />
  <path d="M100 30C61.34 30 30 61.34 30 100C30 138.66 61.34 170 100 170C138.66 170 170 138.66 170 100C170 61.34 138.66 30 100 30ZM100 50C127.614 50 150 72.386 150 100C150 127.614 127.614 150 100 150C72.386 150 50 127.614 50 100C50 72.386 72.386 50 100 50Z" fill="#0D9373" />
  <path d="M70 80L100 60L130 80V120L100 140L70 120V80Z" fill="#0D9373" />
  <path d="M85 90L100 80L115 90V110L100 120L85 110V90Z" fill="#FFFFFF" />
  <path d="M100 80L115 90L100 100L85 90L100 80Z" fill="#0D9373" />
</svg>
