<?xml version="1.0" encoding="UTF-8"?>
<svg width="600" height="600" viewBox="0 0 600 600" xmlns="http://www.w3.org/2000/svg">
  <defs>
    <pattern id="islamic-pattern" x="0" y="0" width="150" height="150" patternUnits="userSpaceOnUse">
      <!-- Base pattern unit -->
      <path fill="none" stroke="rgba(255, 255, 255, 0.15)" stroke-width="2" d="
        M 0,75 A 75,75 0 0,1 75,0 A 75,75 0 0,1 150,75 A 75,75 0 0,1 75,150 A 75,75 0 0,1 0,75 Z
        M 37.5,75 A 37.5,37.5 0 0,0 75,37.5 A 37.5,37.5 0 0,0 112.5,75 A 37.5,37.5 0 0,0 75,112.5 A 37.5,37.5 0 0,0 37.5,75 Z
        M 75,0 L 75,37.5 M 75,112.5 L 75,150 M 0,75 L 37.5,75 M 112.5,75 L 150,75
        M 21.97,21.97 L 47.73,47.73 M 102.27,102.27 L 128.03,128.03 M 21.97,128.03 L 47.73,102.27 M 102.27,47.73 L 128.03,21.97
      "/>
      
      <!-- Star pattern overlays -->
      <path fill="none" stroke="rgba(255, 255, 255, 0.1)" stroke-width="1.5" d="
        M 75,18.75 L 84.38,37.5 L 103.13,37.5 L 93.75,56.25 L 103.13,75 L 84.38,75 L 75,93.75 L 65.63,75 L 46.88,75 L 56.25,56.25 L 46.88,37.5 L 65.63,37.5 Z
        M 18.75,75 L 37.5,84.38 L 37.5,103.13 L 56.25,93.75 L 75,103.13 L 75,84.38 L 93.75,75 L 75,65.63 L 75,46.88 L 56.25,56.25 L 37.5,46.88 L 37.5,65.63 Z
        M 131.25,75 L 112.5,84.38 L 112.5,103.13 L 93.75,93.75 L 75,103.13 L 75,84.38 L 56.25,75 L 75,65.63 L 75,46.88 L 93.75,56.25 L 112.5,46.88 L 112.5,65.63 Z
        M 75,131.25 L 65.63,112.5 L 46.88,112.5 L 56.25,93.75 L 46.88,75 L 65.63,75 L 75,56.25 L 84.38,75 L 103.13,75 L 93.75,93.75 L 103.13,112.5 L 84.38,112.5 Z
      "/>
    </pattern>
  </defs>
  
  <!-- Background rectangle with the pattern -->
  <rect width="100%" height="100%" fill="url(#islamic-pattern)" />
</svg>
