<?xml version="1.0" encoding="UTF-8"?>
<svg width="600" height="600" viewBox="0 0 600 600" xmlns="http://www.w3.org/2000/svg">
  <defs>
    <linearGradient id="subtle-gradient-animated" x1="0%" y1="0%" x2="100%" y2="100%">
      <stop offset="0%" stop-color="rgba(255, 255, 255, 0.15)">
        <animate attributeName="stop-color" 
                 values="rgba(255, 255, 255, 0.15); rgba(255, 255, 255, 0.08); rgba(255, 255, 255, 0.15)" 
                 dur="8s" 
                 repeatCount="indefinite" />
      </stop>
      <stop offset="100%" stop-color="rgba(255, 255, 255, 0.05)">
        <animate attributeName="stop-color" 
                 values="rgba(255, 255, 255, 0.05); rgba(255, 255, 255, 0.12); rgba(255, 255, 255, 0.05)" 
                 dur="8s" 
                 repeatCount="indefinite" />
      </stop>
    </linearGradient>
    
    <pattern id="islamic-pattern-animated" x="0" y="0" width="200" height="200" patternUnits="userSpaceOnUse">
      <!-- Base pattern unit with gradient stroke -->
      <path fill="none" stroke="url(#subtle-gradient-animated)" stroke-width="1.2" d="
        M 0,100 A 100,100 0 0,1 100,0 A 100,100 0 0,1 200,100 A 100,100 0 0,1 100,200 A 100,100 0 0,1 0,100 Z
        M 50,100 A 50,50 0 0,0 100,50 A 50,50 0 0,0 150,100 A 50,50 0 0,0 100,150 A 50,50 0 0,0 50,100 Z
        M 100,0 L 100,50 M 100,150 L 100,200 M 0,100 L 50,100 M 150,100 L 200,100
        M 29.29,29.29 L 63.64,63.64 M 136.36,136.36 L 170.71,170.71 M 29.29,170.71 L 63.64,136.36 M 136.36,63.64 L 170.71,29.29
      ">
        <animate attributeName="stroke-width" 
                 values="1.2; 1.5; 1.2" 
                 dur="10s" 
                 repeatCount="indefinite" />
      </path>
      
      <!-- Elegant star pattern overlays -->
      <path fill="none" stroke="rgba(255, 255, 255, 0.08)" stroke-width="0.8" d="
        M 100,25 L 112.5,50 L 137.5,50 L 125,75 L 137.5,100 L 112.5,100 L 100,125 L 87.5,100 L 62.5,100 L 75,75 L 62.5,50 L 87.5,50 Z
        M 25,100 L 50,112.5 L 50,137.5 L 75,125 L 100,137.5 L 100,112.5 L 125,100 L 100,87.5 L 100,62.5 L 75,75 L 50,62.5 L 50,87.5 Z
        M 175,100 L 150,112.5 L 150,137.5 L 125,125 L 100,137.5 L 100,112.5 L 75,100 L 100,87.5 L 100,62.5 L 125,75 L 150,62.5 L 150,87.5 Z
        M 100,175 L 87.5,150 L 62.5,150 L 75,125 L 62.5,100 L 87.5,100 L 100,75 L 112.5,100 L 137.5,100 L 125,125 L 137.5,150 L 112.5,150 Z
      ">
        <animate attributeName="stroke-opacity" 
                 values="0.08; 0.15; 0.08" 
                 dur="12s" 
                 repeatCount="indefinite" />
      </path>
      
      <!-- Subtle dot accents at intersections with pulse animation -->
      <circle cx="100" cy="100" r="1.5" fill="rgba(255, 255, 255, 0.15)">
        <animate attributeName="r" 
                 values="1.5; 2; 1.5" 
                 dur="6s" 
                 repeatCount="indefinite" />
        <animate attributeName="fill-opacity" 
                 values="0.15; 0.25; 0.15" 
                 dur="6s" 
                 repeatCount="indefinite" />
      </circle>
      
      <!-- Additional smaller dots with staggered animations -->
      <circle cx="100" cy="50" r="1" fill="rgba(255, 255, 255, 0.12)">
        <animate attributeName="r" 
                 values="1; 1.3; 1" 
                 dur="8s" 
                 repeatCount="indefinite" 
                 begin="1s" />
      </circle>
      <circle cx="100" cy="150" r="1" fill="rgba(255, 255, 255, 0.12)">
        <animate attributeName="r" 
                 values="1; 1.3; 1" 
                 dur="8s" 
                 repeatCount="indefinite" 
                 begin="2s" />
      </circle>
      <circle cx="50" cy="100" r="1" fill="rgba(255, 255, 255, 0.12)">
        <animate attributeName="r" 
                 values="1; 1.3; 1" 
                 dur="8s" 
                 repeatCount="indefinite" 
                 begin="3s" />
      </circle>
      <circle cx="150" cy="100" r="1" fill="rgba(255, 255, 255, 0.12)">
        <animate attributeName="r" 
                 values="1; 1.3; 1" 
                 dur="8s" 
                 repeatCount="indefinite" 
                 begin="4s" />
      </circle>
      <circle cx="63.64" cy="63.64" r="0.8" fill="rgba(255, 255, 255, 0.1)">
        <animate attributeName="r" 
                 values="0.8; 1.1; 0.8" 
                 dur="10s" 
                 repeatCount="indefinite" 
                 begin="2.5s" />
      </circle>
      <circle cx="136.36" cy="136.36" r="0.8" fill="rgba(255, 255, 255, 0.1)">
        <animate attributeName="r" 
                 values="0.8; 1.1; 0.8" 
                 dur="10s" 
                 repeatCount="indefinite" 
                 begin="3.5s" />
      </circle>
      <circle cx="63.64" cy="136.36" r="0.8" fill="rgba(255, 255, 255, 0.1)">
        <animate attributeName="r" 
                 values="0.8; 1.1; 0.8" 
                 dur="10s" 
                 repeatCount="indefinite" 
                 begin="4.5s" />
      </circle>
      <circle cx="136.36" cy="63.64" r="0.8" fill="rgba(255, 255, 255, 0.1)">
        <animate attributeName="r" 
                 values="0.8; 1.1; 0.8" 
                 dur="10s" 
                 repeatCount="indefinite" 
                 begin="5.5s" />
      </circle>
    </pattern>
  </defs>
  
  <!-- Background rectangle with the pattern -->
  <rect width="100%" height="100%" fill="url(#islamic-pattern-animated)" />
</svg>
