<?xml version="1.0" encoding="UTF-8"?>
<svg width="600" height="600" viewBox="0 0 600 600" xmlns="http://www.w3.org/2000/svg">
  <defs>
    <pattern id="islamic-pattern-subtle" x="0" y="0" width="200" height="200" patternUnits="userSpaceOnUse">
      <!-- Base pattern unit with very subtle opacity -->
      <path fill="none" stroke="rgba(255, 255, 255, 0.07)" stroke-width="1.5" d="
        M 0,100 A 100,100 0 0,1 100,0 A 100,100 0 0,1 200,100 A 100,100 0 0,1 100,200 A 100,100 0 0,1 0,100 Z
        M 50,100 A 50,50 0 0,0 100,50 A 50,50 0 0,0 150,100 A 50,50 0 0,0 100,150 A 50,50 0 0,0 50,100 Z
        M 100,0 L 100,50 M 100,150 L 100,200 M 0,100 L 50,100 M 150,100 L 200,100
        M 29.29,29.29 L 63.64,63.64 M 136.36,136.36 L 170.71,170.71 M 29.29,170.71 L 63.64,136.36 M 136.36,63.64 L 170.71,29.29
      "/>
      
      <!-- Subtle star pattern overlays -->
      <path fill="none" stroke="rgba(255, 255, 255, 0.05)" stroke-width="1" d="
        M 100,25 L 112.5,50 L 137.5,50 L 125,75 L 137.5,100 L 112.5,100 L 100,125 L 87.5,100 L 62.5,100 L 75,75 L 62.5,50 L 87.5,50 Z
        M 25,100 L 50,112.5 L 50,137.5 L 75,125 L 100,137.5 L 100,112.5 L 125,100 L 100,87.5 L 100,62.5 L 75,75 L 50,62.5 L 50,87.5 Z
        M 175,100 L 150,112.5 L 150,137.5 L 125,125 L 100,137.5 L 100,112.5 L 75,100 L 100,87.5 L 100,62.5 L 125,75 L 150,62.5 L 150,87.5 Z
        M 100,175 L 87.5,150 L 62.5,150 L 75,125 L 62.5,100 L 87.5,100 L 100,75 L 112.5,100 L 137.5,100 L 125,125 L 137.5,150 L 112.5,150 Z
      "/>
    </pattern>
  </defs>
  
  <!-- Background rectangle with the pattern -->
  <rect width="100%" height="100%" fill="url(#islamic-pattern-subtle)" />
</svg>
